<?xml version="1.0"?>
<svg xmlns:rdf="http://www.w3.org/1999/02/22-rdf-syntax-ns#" xmlns="http://www.w3.org/2000/svg" xmlns:cc="http://web.resource.org/cc/" xmlns:dc="http://purl.org/dc/elements/1.1/" xmlns:svg="http://www.w3.org/2000/svg" id="svg2" viewBox="0 0 719.49 872.04" version="1.0">
    <g id="g2224" stroke="#000" transform="matrix(.91296 0 0 .91296 826.53 15.3)">
        <path id="path2221" d="m-858.4 844.29c1.48 0.28 5.36-0.65 5.45 1.42 0.06 1.46 0.48 2.01-0.09 4.29-0.65 2.59 0.27 2.54-1.79 3.57-1.4 0.7-1.96 2.44-1.96 4.02 0 1.68-0.2 4.21-0.18 5 0.01 0.71 0.25 2.72 0 3.48-0.55 1.66-1.25 3.88-1.88 4.29-1.17 0.77-1.53 2.33-1.96 2.77-1.1 1.09-2.04 1.25-2.23 2.94-0.44 3.8 0.86 2.5 2.86 2.5 1.92 0 4.31 0.5 6.42 0.72 1.76 0.17 4.03 0.9 5.45 1.87 0.87 0.6 2.2 1.1 3.3 1.79 1.06 0.66 1.19 1.11 3.13 0.98 1.49-0.1 2.54-0.87 3.75-1.25 1.2-0.38 2.05-1.32 5.45-1.07 1.04 0.07-0.31-1.71-0.18-4.38 0.1-2.16 0.04-3.13 0.44-4.73 0.55-2.19 1.11-2.48 2.59-3.21 1.96-0.98 1.45-1.54 2.77-2.77 0.71-0.66 1.26-3.07 3.13-2.95 3.35 0.22 3.98-0.73 4.01-2.23 0.08-3.21-2-0.62-2.14-2.68-0.14-2.17-1.92-2.89-1.96-6.16-0.02-1.52 1.59-2.33 1.69-4.02 0.13-2.09 0.94-2.77 3.22-2.77 3.04 0 2.76-1.52 2.94-2.94 0.2-1.55 1.74-1.21 1.79-3.22 0.04-1.89-1.63-2.79-4.02-5.98-1.2-1.61 0.09-3.2 0-4.64-0.24-4-2-0.32-1.87-4.38 0.04-1.28 3-0.8 4.91-0.8 2.03 0 4.2 0.6 5.53-1.25 1.52-2.11 2.76-4.21 2.95-5.8 0.16-1.4-2.18-1.32-1.88-3.49 0.24-1.67-0.48-3.01 1.79-2.85 3.85 0.27 2.68-1.46 3.21-3.57 0.47-1.87 1.08-3.28 1.08-5.36 0-1.67 0.35-3.86 0.35-5.72 0-1.95 0.42-2.17 0.98-3.3 0.49-0.96 3.31-2.27 4.38-2.95 1.7-1.07 3.33-1.51 4.82-1.51 1.05 0 2.94-2.5 3.75-3.31 2.17-2.16 1.69-4.64-1.07-4.64-2.92 0-2.14-3.5-2.14-5 0-2.68 0-3.21-2.86-3.93-1.94-0.48-3.04-1.43-5.09-1.43-2.5 0-2.29 0.33-3.48 1.52-0.59 0.59-4.99 0-5.72-0.36-1.62-0.8-2.01-1.68-3.12-1.96-1.9-0.47-5.61 0.09-7.59 0.09-2.64 0-1.09-2.82-0.71-3.57 1.09-2.19 2.16-2.57 0.62-4.11-1.25-1.25-5.59-0.09-7.14 0.27-1.64 0.38-3.59 1.68-5.27 2.41-1.37 0.59-1.73 2.47-1.79 4.64-0.04 1.74 0.72 3.44 0.72 5 0 1.96-0.54 3.45-0.54 5.36s-0.29 4.28-0.62 5.62c-0.5 1.99-1.01 2.8-1.79 4.38-0.74 1.5-1.38 2.54-2.05 3.93-0.72 1.48-2.45 3.36-2.86 5-0.55 2.2-1.87 3.13-1.87 5.44 0 1.83-0.56 3.66-1.34 4.83-0.57 0.83-1.15 1.4-1.88 2.85-0.6 1.2-2.99 3.19-3.84 4.02-0.93 0.92-3.31 3.22-4.28 4.2-1.59 1.58-2.28 3.07-3.57 4.37-1.65 1.64-2.33 3.57-2.33 5.98 0 1.79 0.45 3.31 0.45 5.09 0 1.37 0.54 3.7 0.54 5.54 0 1.37-0.45 2.77 0.62 4.11z" fill-rule="evenodd" stroke-linecap="round" stroke-width="2" fill="#fff"/>
    </g>
</svg>