<?xml version="1.0"?>
<svg xmlns:rdf="http://www.w3.org/1999/02/22-rdf-syntax-ns#" xmlns="http://www.w3.org/2000/svg" xmlns:cc="http://web.resource.org/cc/" xmlns:dc="http://purl.org/dc/elements/1.1/" xmlns:svg="http://www.w3.org/2000/svg" id="svg2" viewBox="0 0 719.49 872.04" version="1.0">
    <rect width="100" height="100" x="0" y="0"/>
    <polygon fill="none" stroke="black" points="-858.400 844.290, -852.950 845.710, -853.040 850.000, -854.830 853.570, -856.790 857.590, -856.970 862.590, -856.970 866.070, -858.850 870.360, -860.810 873.130, -863.040 876.070, -860.180 878.570, -853.760 879.290, -848.310 881.160, -845.010 882.950, -841.880 883.930, -838.130 882.680, -832.680 881.610, -832.860 877.230, -832.420 872.500, -829.830 869.290, -827.060 866.520, -823.930 863.570, -819.920 861.340, -822.060 858.660, -824.020 852.500, -822.330 848.480, -819.110 845.710, -816.170 842.770, -814.380 839.550, -818.400 833.570, -818.400 828.930, -820.270 824.550, -815.360 823.750, -809.830 822.500, -806.880 816.700, -808.760 813.210, -806.970 810.360, -803.760 806.790, -802.680 801.430, -802.330 795.710, -801.350 792.410, -796.970 789.460, -792.150 787.950, -788.400 784.640, -789.470 780.000, -791.610 775.000, -794.470 771.070, -799.560 769.640, -803.040 771.160, -808.760 770.800, -811.880 768.840, -819.470 768.930, -820.180 765.360, -819.560 761.250, -826.700 761.520, -831.970 763.930, -833.760 768.570, -833.040 773.570, -833.580 778.930, -834.200 784.550, -835.990 788.930, -838.040 792.860, -840.900 797.860, -842.770 803.300, -844.110 808.130, -845.990 810.980, -849.830 815.000, -854.110 819.200, -857.680 823.570, -860.010 829.550, -859.560 834.640, -859.020 840.180, -858.400 844.290"></polygon>  
</svg>