<?xml version="1.0"?>
<svg xmlns:rdf="http://www.w3.org/1999/02/22-rdf-syntax-ns#" xmlns="http://www.w3.org/2000/svg" xmlns:cc="http://web.resource.org/cc/" xmlns:dc="http://purl.org/dc/elements/1.1/" xmlns:svg="http://www.w3.org/2000/svg" id="svg2" viewBox="0 0 719.49 872.04" version="1.0">
  <rect width="100" height="100" x="0" y="0"/>
  <polygon fill="none" stroke="black" points="-856.5769448297799 842.6982259416274, -850.9173119407105 844.1728458870364, -851.0499040794305 850.4930711660255, -853.0371643659113 854.4564897262132, -854.8065432057456 858.0855218364859, -854.97 862.6259883435522, -854.97 866.4889949464732, -857.0998449739661 871.3491199136618, -859.1965071970517 874.3122598922063, -860.3189875303841 875.7921218563307, -859.3350297611453 876.6522248014695, -853.3187405291201 877.3269488274909, -847.5030779662229 879.322414697696, -844.2270948614229 881.099387351512, -841.8992527637453 881.8282324811361, -838.6409665462766 880.7421370753132, -834.7487575319999 879.9779786082902, -834.8638166679898 877.1782062992015, -834.3555015369285 871.7138186402923, -831.3195861324047 867.9511590076584, -828.4532840650584 865.0848569403122, -825.1201319136086 861.9433876601919, -822.957783881886 860.7408848894335, -823.8536932115173 859.618904981297, -826.1492779624853 852.4042100496837, -823.9912322254285 847.2708704857971, -820.4711667589164 844.2427396341703, -817.7820910871467 841.5536639624005, -816.7233159968995 839.6490517888833, -820.4 834.1797556847688, -820.4 829.33907897875, -823.1120902424813 822.9866964856657, -815.7416421153703 821.785808807114, -811.1869307523655 820.7562628389845, -809.137375655829 816.7266290898623, -811.0732889091154 813.1328326781766, -808.5721910583724 809.1506377761555, -805.6126411915927 805.8591757747837, -804.6678420422643 801.170172589228, -804.312307881617 795.3597285923616, -803.0628258738874 791.1522891785783, -797.8457542814224 787.6385080831967, -793.154256055988 786.1687648631955, -790.6165006305017 783.9287727409663, -791.3788021847141 780.6230912348493, -793.3598864704921 775.9943896325641, -795.6788771633393 772.8078045196658, -799.4136687681067 771.75854086646, -802.6828020239346 773.1864381506147, -809.3932248897877 772.7641038443721, -812.4451919576842 770.8468424812064, -821.1075207548568 770.9495578424377, -822.2097630565859 765.4072972548693, -821.8978833814366 763.3398368276702, -826.2285280388642 763.5036007012704, -830.3972832700614 765.4099954085161, -831.7059282473647 768.8022371373918, -831.0255514100528 773.5270762853908, -831.5910223124313 779.1398985756655, -832.2427522784366 785.0475153642939, -834.1737827992515 789.7726068062882, -836.2846857916634 793.8193622990583, -839.070080098998 798.6889327664264, -840.8589633649874 803.8929568129411, -842.2670221688962 808.9682732479259, -844.4195471423453 812.2314095108675, -848.4061126795696 816.404845307649, -852.6307061583477 820.5504744223379, -855.9311952018635 824.5905688537564, -857.9765571971044 829.8400386956192, -857.5705407829229 834.4325354693603"></polygon>  
</svg>