<?xml version="1.0"?>
<svg xmlns:rdf="http://www.w3.org/1999/02/22-rdf-syntax-ns#" xmlns="http://www.w3.org/2000/svg" xmlns:cc="http://web.resource.org/cc/" xmlns:dc="http://purl.org/dc/elements/1.1/" xmlns:svg="http://www.w3.org/2000/svg" id="svg2" viewBox="0 0 719.49 872.04" version="1.0">
    <g id="g2224" stroke="#000" transform="matrix(.91296 0 0 .91296 826.53 15.3)">
        <path xmlns="http://www.w3.org/2000/svg" id="path4145" d="m-343.43 452.92c0.66 0.87-2.15-2.62-2.27-6.21-0.05-1.16 0.12-2.26 0.12-3.79 0-1.4 0.01-7.75 0.25-8.72 0.4-1.6 0.69-2.19 2.02-3.4 1.41-1.29 0.89-5.37 0.89-6.82 0-1.51 1.89-3.54 1.89-5.05 0-1.02-0.49-3.24 1.39-4.68 1.92-1.46 8.22-5.93 10.1-5.93 2.02 0 0.89 3.68 2.78 4.67 0.94 0.49 4.34 2.79 5.43 4.04 2.15 2.48 3.44 5.85 4.8 6.19 1.62 0.4 2.17 0.65 3.28 1.77 1.04 1.04 1.46 0.71 2.78-0.26 4.21-3.07 6.11-6.74 6.31-8.58 0.26-2.29-2.12-5.92-2.14-9.85-0.01-1.81 4.23-4.56 5.93-5.43 1.37-0.7 3.65-2.14 5.18-2.53 1.53-0.38 3.83-0.32 5.43 0.51 1.46 0.76 7.27 4.24 8.08 5.05 0.9 0.9 4.46 3.76 8.21 3.79 4.76 0.04 5.19-2.02 10.29-2.12-0.24 1.5 1.29 3.21 3.97 3.25 3.26 0.06 3.07 1.29 3.07 4.31 0 2.71-0.31 6.23 0.44 7.91 0.89 1.99 0.93 3.16 1.99 5.28 1.06 2.11 1.5 4.67 2.82 6.48-0.9 0.71-1.86 1.28-2.08 1.72-0.67 1.34-1.17 2.99-1.89 4.52-0.49 1.04-0.54 2.3-1.68 3.38-1.1 1.03-2.44 1.96-4.79 1.96-1.64 0-3.35 0.41-4.69 1.4-1.69 1.25-3.17 3.53-3.87 4.15-0.49 0.44-3.65-2.69-4.22-2.97-1.3-0.65-2.17-1.21-3.15-2.09-1.13-0.99-2.6-1.95-6.88-1.76-1.83 0.08-3.02-1.49-3.85-2.4-0.89-0.97-2.16-2.84-3.98-2.84-2.36 0-2.6 1.19-3.41 2.77-0.69 1.34-0.81 2.4-3.47 2.4h-8.53c-7.05 0-1.45-1.14-9.21-1.01-6.55 0.12-5.14 1.26-8.34 1.08-3.12-0.18-4.06 0.19-7.83 1.64-1.36 0.52-3.87 2.35-5.11 3.28-0.84 0.63-2.82 2.46-3.66 3.16-0.66 0.54-2.82 1.18-2.4 1.73z" stroke-width="2" fill="#fff" fill-rule="evenodd"/>
    </g>
</svg>