<?xml version="1.0"?>
<svg xmlns:rdf="http://www.w3.org/1999/02/22-rdf-syntax-ns#" xmlns="http://www.w3.org/2000/svg" xmlns:cc="http://web.resource.org/cc/" xmlns:dc="http://purl.org/dc/elements/1.1/" xmlns:svg="http://www.w3.org/2000/svg" id="svg2" viewBox="0 0 719.49 872.04" version="1.0">
  <rect width="100" height="100" x="0" y="0"/>
  <polygon fill="none" stroke="black" points="-343.42999 452.92001, -345.69999 446.71001, -345.57999 442.92001, -345.32999 434.20001, -343.30999 430.80001, -342.41999 423.98001, -340.52999 418.93001, -339.13999 414.25001, -329.03999 408.32001, -326.25999 412.99001, -320.82999 417.03001, -316.02999 423.22001, -312.74999 424.99001, -309.96999 424.73001, -303.65999 416.15001, -305.79999 406.30001, -299.86999 400.87001, -294.68999 398.34001, -289.25999 398.85001, -281.17999 403.90001, -272.96999 407.69001, -262.67999 405.57001, -258.70999 408.82001, -255.63999 413.13001, -255.19999 421.04001, -253.20999 426.32001, -250.38999 432.80001, -252.46999 434.52001, -254.35999 439.04001, -256.03999 442.42001, -260.82999 444.38001, -265.51999 445.78001, -269.38999 449.93001, -273.60999 446.96001, -276.75999 444.87001, -283.63999 443.11001, -287.48999 440.71001, -291.46999 437.87001, -294.87999 440.64001, -298.34999 443.04001, -306.87999 443.04001, -316.08999 442.03001, -324.42999 443.11001, -332.25999 444.75001, -337.36999 448.03001, -341.02999 451.19001"></polygon>  
</svg>