<?xml version="1.0"?>
<svg xmlns:rdf="http://www.w3.org/1999/02/22-rdf-syntax-ns#" xmlns="http://www.w3.org/2000/svg" xmlns:cc="http://web.resource.org/cc/" xmlns:dc="http://purl.org/dc/elements/1.1/" xmlns:svg="http://www.w3.org/2000/svg" id="svg2" viewBox="0 0 719.49 872.04" version="1.0">
  <rect width="100" height="100" x="0" y="0"/>
  <polygon fill="none" stroke="black" points="-342.4579111954679 449.7538614947259, -343.6887502696071 446.3866761861777, -343.58089712897544 442.98031449456124, -343.3456733553318 434.77570926987283, -341.38011897008363 431.4673504036134, -340.4664838239218 424.4662361375199, -338.6325360369331 419.5660052781056, -337.44729930616364 415.57542405508303, -329.7416723193158 411.05122920042885, -327.77425137859154 414.3562132986958, -322.24304701517246 418.47151083612, -317.35158829577574 424.779454476342, -313.16678261195227 427.03771851913694, -308.8903878547764 426.63776793033634, -301.51391086723254 416.6076296493338, -303.60153056965885 406.99872587882004, -298.7325171026614 402.54025317632494, -294.31735150368786 400.38381129111195, -289.9184499945031 400.7969677864497, -282.1329011954843 405.66293578583645, -273.21085444689834 409.78163946149306, -263.2096232707576 407.7211331356021, -260.18382943378816 410.198168392567, -257.6047591246198 413.8189478819857, -257.1798385750262 421.457860489453, -255.06383032536922 427.0721939357792, -252.82448540914817 432.217922679436, -254.1248083532566 433.2931897293719, -256.18000288553264 438.2082581346033, -257.495321987252 440.8545548987769, -261.49634246069013 442.4917156770522, -266.61236472016776 444.01888650077683, -269.6641039482644 447.29142339912335, -272.4813682857129 445.3086567919617, -275.9363476851685 443.0163053808943, -282.8445547627874 441.2490896168523, -286.37905178121764 439.04576680016856, -291.5484604790429 435.3570430057404, -296.08112174259304 439.0389995160143, -298.974249400689 441.04001, -306.7706543276909 441.04001, -316.1096817557912 440.01586041233645, -324.76392006849795 441.1365531434783, -333.0304312860526 442.86798078036077, -338.56967805475375 446.4235051250457, -342.27063297481266 449.61886511067024"></polygon>  
</svg>