<?xml version="1.0"?>
<svg xmlns:rdf="http://www.w3.org/1999/02/22-rdf-syntax-ns#" xmlns="http://www.w3.org/2000/svg" xmlns:cc="http://web.resource.org/cc/" xmlns:dc="http://purl.org/dc/elements/1.1/" xmlns:svg="http://www.w3.org/2000/svg" id="svg2" viewBox="0 0 719.49 872.04" version="1.0">
    <g id="g2224" stroke="#000" transform="matrix(.91296 0 0 .91296 826.53 15.3)">
        <path xmlns="http://www.w3.org/2000/svg" id="path17776" d="m-269.08 449.96c-0.14 1.3 1.32 4.8 2 5.8 1.18 1.73 1.72 2.85 3.07 4.29 1.02 1.08 0.62 2.64-0.78 4.03-1.11 1.12-2.87 2.21-4.22 3.03-1.2 0.73-3.45 2.29-3.13 5.21 0.19 1.78 0.2 7.05 0.02 9.16-0.19 2.18-1.6 4.11-3.81 6.95-1.04 1.35-1.8 2.2-7.47 7.58-5.25 5-6.35 6.1-14.87 6.3-1.23-1.25-1.53-2.23-1.79-3.43-0.4-1.81-0.07-5.82-2.15-6.32-2.16-0.51-5.65-3.41-8.08-3.41-1.6 0-2.38 0.36-3.5 0.64-0.36-1.29 0.18-4.69-0.67-5.69-0.64-0.76-0.76-1.71-0.76-3.09 0-1.83-0.08-2.92-0.5-3.54-0.87-1.25-2.99-3.12-3.6-3.53-3.22-2.15-3.54-2.09-8.65-1.96-1.43 0.04-5.83 0.13-8.84 0.06-0.91-0.02-0.76-2.21-0.88-3.59-0.33-3.77-1.9-3.51-1.9-5.81 0-1.6-1.94-1.37-2.59-4.17-0.47-2.06-1.26-1.69-0.82-5.37 0.1-0.82 1.62-1.35 2.28-1.89 0.84-0.69 2.81-2.52 3.66-3.16 1.24-0.93 3.75-2.76 5.11-3.28 3.77-1.45 4.71-1.82 7.83-1.64 3.2 0.18 1.79-0.96 8.33-1.07 7.77-0.14 2.17 1.01 9.22 1.01h8.53c2.66 0 2.78-1.07 3.47-2.4 0.81-1.59 1.05-2.78 3.41-2.78 1.82 0 3.09 1.88 3.97 2.84 0.84 0.91 2.03 2.48 3.86 2.4 4.28-0.19 5.75 0.77 6.88 1.77 0.98 0.87 1.85 1.43 3.15 2.08 0.57 0.28 3.5 2.7 4.22 2.98z" stroke-width="2" fill="#fff" fill-rule="evenodd"/>
    </g>
</svg>