<?xml version="1.0"?>
<svg xmlns:rdf="http://www.w3.org/1999/02/22-rdf-syntax-ns#" xmlns="http://www.w3.org/2000/svg" xmlns:cc="http://web.resource.org/cc/" xmlns:dc="http://purl.org/dc/elements/1.1/" xmlns:svg="http://www.w3.org/2000/svg" id="svg2" viewBox="0 0 719.49 872.04" version="1.0">
  <rect width="100" height="100" x="0" y="0"/>
  <polygon fill="none" stroke="black" points="-269.07999 449.95999, -267.07999 455.75999, -264.00999 460.04999, -264.78999 464.07999, -269.00999 467.10999, -272.13999 472.31999, -272.11999 481.47999, -275.92999 488.42999, -283.39999 496.00999, -298.26999 502.30999, -300.05999 498.87999, -302.20999 492.55999, -310.28999 489.14999, -313.78999 489.78999, -314.45999 484.09999, -315.21999 481.00999, -315.71999 477.46999, -319.31999 473.93999, -327.96999 471.97999, -336.80999 472.03999, -337.68999 468.44999, -339.58999 462.63999, -342.17999 458.46999, -342.99999 453.09999, -340.71999 451.20999, -337.05999 448.04999, -331.94999 444.76999, -324.11999 443.12999, -315.78999 442.05999, -306.56999 443.06999, -298.03999 443.06999, -294.56999 440.66999, -291.15999 437.88999, -287.18999 440.72999, -283.32999 443.12999, -276.44999 444.89999, -273.29999 446.97999"></polygon>  
</svg>